<?xml version="1.0" standalone="no"?><!DOCTYPE svg PUBLIC "-//W3C//DTD SVG 1.1//EN" "http://www.w3.org/Graphics/SVG/1.1/DTD/svg11.dtd"><svg class="icon" width="128px" height="128.00px" viewBox="0 0 1024 1024" version="1.1" xmlns="http://www.w3.org/2000/svg"><path d="M389.12 696.32h245.76v133.12H389.12z" fill="#C7CFD1" /><path d="M327.63904 797.62432h368.72192a25.6 25.6 0 0 1 25.6 25.6v6.7072C721.96096 844.07296 710.46144 849.92 696.32 849.92H327.68c-14.14144 0-25.64096-5.84704-25.64096-19.98848v-6.7072a25.6 25.6 0 0 1 25.6-25.6z" fill="#E4E4E4" /><path d="M194.56 174.08h634.88c32.83968 0 61.44 28.60032 61.44 61.44v430.08c0 32.83968-28.93824 60.7744-61.76768 60.7744H194.88768C162.048 726.3744 133.12 698.43968 133.12 665.6V235.52c0-32.83968 28.60032-61.44 61.44-61.44z" fill="#6E696F" /><path d="M225.28 225.28h573.44c22.62016 0 39.68 11.27424 39.68 33.8944v369.89952a40.96 40.96 0 0 1-40.96 40.96h-570.88a40.96 40.96 0 0 1-40.96-40.96V259.1744c0-22.62016 17.05984-33.8944 39.68-33.8944z" fill="#FF8351" /><path d="M614.81984 503.37792c-42.57792 56.44288-123.136 67.8912-179.9168 25.56928-56.79104-42.33216-68.31104-122.40896-25.72288-178.86208 42.57792-56.45312 123.136-67.90144 179.9168-25.56928 56.79104 42.33216 68.31104 122.40896 25.72288 178.86208zM580.1472 374.5792l-88.54528 72.27392-41.19552-47.45216-22.38464 20.00896 60.04736 69.16096 2.70336-2.41664 109.98784-89.77408-20.61312-21.80096z" fill="#FFFFFF" /><path d="M890.88 624.64v51.2c0 32.83968-28.93824 60.7744-61.76768 60.7744H194.88768C162.048 736.6144 133.12 708.67968 133.12 675.84v-51.2h757.76z" fill="#E4E4E4" /><path d="M512 646.8096a34.9184 34.9184 0 0 1 34.99008 34.83648A34.9184 34.9184 0 0 1 512 716.4928a34.9184 34.9184 0 0 1-34.99008-34.84672A34.9184 34.9184 0 0 1 512 646.8096z" fill="#EB704E" /></svg>