<?xml version="1.0" standalone="no"?><!DOCTYPE svg PUBLIC "-//W3C//DTD SVG 1.1//EN" "http://www.w3.org/Graphics/SVG/1.1/DTD/svg11.dtd"><svg class="icon" width="128px" height="128.00px" viewBox="0 0 1024 1024" version="1.1" xmlns="http://www.w3.org/2000/svg"><path d="M470.016 758.784h79.872c58.81856 0 106.496 47.67744 106.496 106.496 0 58.81856-47.67744 106.496-106.496 106.496h-79.872c-58.81856 0-106.496-47.67744-106.496-106.496 0-58.81856 47.67744-106.496 106.496-106.496z" fill="#FFD945" /><path d="M323.584 825.344H696.32a26.624 26.624 0 0 1 26.624 26.624v106.496a26.624 26.624 0 0 1-26.624 26.624H323.584a26.624 26.624 0 0 1-26.624-26.624V851.968a26.624 26.624 0 0 1 26.624-26.624z" fill="#AC582F" /><path d="M456.704 878.592H563.2a26.624 26.624 0 1 1 0 53.248H456.704a26.624 26.624 0 1 1 0-53.248z" fill="#FFFFFF" /><path d="M430.08 692.224h159.744v79.872H430.08v-79.872z" fill="#FF8351" /><path d="M809.472 465.92h-599.04c-91.904 0-166.4-74.496-166.4-166.4S118.528 133.12 210.432 133.12h599.04c91.904 0 166.4 74.496 166.4 166.4S901.376 465.92 809.472 465.92z m6.656-266.24H203.776c-58.81856 0-93.184 47.67744-93.184 106.496 0 58.80832 34.36544 93.184 93.184 93.184h612.352c58.81856 0 93.184-34.37568 93.184-93.184 0-58.81856-34.36544-106.496-93.184-106.496z" fill="#FFB935" /><path d="M789.504 173.056v212.992C789.504 540.43648 664.34048 665.6 509.952 665.6S230.4 540.43648 230.4 386.048V173.056h559.104z" fill="#FFD945" /><path d="M436.736 612.352h146.432a46.592 46.592 0 1 1 0 93.184h-146.432a46.592 46.592 0 1 1 0-93.184zM163.84 53.248h692.224a39.936 39.936 0 1 1 0 79.872H163.84a39.936 39.936 0 1 1 0-79.872z" fill="#FFD945" /></svg>