<?xml version="1.0" standalone="no"?><!DOCTYPE svg PUBLIC "-//W3C//DTD SVG 1.1//EN" "http://www.w3.org/Graphics/SVG/1.1/DTD/svg11.dtd"><svg class="icon" width="128px" height="128.00px" viewBox="0 0 1024 1024" version="1.1" xmlns="http://www.w3.org/2000/svg"><path d="M503.83872 508.95872m-439.20384 0a439.20384 439.20384 0 1 0 878.40768 0 439.20384 439.20384 0 1 0-878.40768 0Z" fill="#F1AE2C" /><path d="M503.68512 508.80512m-399.36 0a399.36 399.36 0 1 0 798.72 0 399.36 399.36 0 1 0-798.72 0Z" fill="#FFD220" /><path d="M512 514.304L228.97664 219.33056C300.58496 151.35744 397.28128 109.568 503.808 109.568c2.74432 0 5.45792 0.1536 8.192 0.2048v404.5312z" fill="#FFF07D" /><path d="M517.1712 508.91776l-413.97248-2.19136c0.17408 99.9936 37.07904 200.15104 111.48288 278.39488 1.91488 2.01728 3.92192 3.90144 5.86752 5.86752l296.62208-282.07104z" fill="#FFF07D" /><path d="M494.17216 514.23232l284.99968-294.05184c71.94624 70.72768 118.58944 167.53664 123.47392 275.3536 0.13312 2.78528 0.1024 5.5296 0.17408 8.2944l-408.64768 10.40384z" fill="#FFF07D" /><path d="M494.44864 501.63712l316.63104 266.69056c-64.95232 76.02176-157.98272 128.36864-265.34912 139.70432-2.77504 0.29696-5.51936 0.43008-8.28416 0.6656l-42.99776-407.06048z" fill="#FFF07D" /><path d="M513.93536 229.376a11.264 11.264 0 0 1 11.18208 9.984l25.45664 248.1664c3.18464 30.12608-20.1728 61.3376-36.63872 61.3376-16.46592 0-39.82336-31.21152-36.64896-61.3376l25.46688-248.1664a11.264 11.264 0 0 1 11.18208-9.984z" fill="#FF6A00" /><path d="M517.12 415.744c58.81856 0 106.496 47.67744 106.496 106.496 0 58.81856-47.67744 106.496-106.496 106.496-58.81856 0-106.496-47.67744-106.496-106.496 0-58.81856 47.67744-106.496 106.496-106.496z" fill="#FF6A00" /></svg>