<?xml version="1.0" standalone="no"?><!DOCTYPE svg PUBLIC "-//W3C//DTD SVG 1.1//EN" "http://www.w3.org/Graphics/SVG/1.1/DTD/svg11.dtd"><svg class="icon" width="128px" height="128.00px" viewBox="0 0 1024 1024" version="1.1" xmlns="http://www.w3.org/2000/svg"><path d="M314.76736 536.45312h429.94688c27.71968 0 50.20672 22.528 50.20672 50.31936a50.26816 50.26816 0 0 1-50.20672 50.31936H314.76736a50.25792 50.25792 0 0 1-50.20672-50.31936 50.25792 50.25792 0 0 1 50.20672-50.31936z" fill="#FFAF80" /><path d="M740.85376 379.04384v270.9504c0 114.01216-92.2112 206.44864-205.96736 206.44864H524.5952c-113.75616 0-205.96736-92.43648-205.96736-206.44864v-270.9504h422.22592z" fill="#FFE0D0" /><path d="M318.62784 360.98048h422.22592v95.47776H318.62784v-95.47776z" fill="#FF6A00" /><path d="M743.92576 379.04384H319.3856c-0.06144-1.73056-0.26624-3.42016-0.26624-5.16096 0-78.3872 63.39584-141.9264 141.60896-141.9264h283.19744v147.08736z" fill="#ECAD92" /><path d="M590.29504 231.95648h162.2016c37.67296 0 68.21888 30.6176 68.21888 68.38272 0 37.76512-30.54592 68.38272-68.21888 68.38272h-162.2016c-37.67296 0-68.21888-30.6176-68.21888-68.38272 0-37.76512 30.54592-68.38272 68.21888-68.38272z" fill="#EBAC91" /><path d="M675.25632 291.30752c34.83648 0 63.0784 28.30336 63.0784 63.22176 0 34.9184-28.24192 63.22176-63.0784 63.22176s-63.0784-28.30336-63.0784-63.22176c0-34.9184 28.24192-63.22176 63.0784-63.22176z" fill="#ECAD92" /><path d="M573.60384 358.4m-43.68384 0a43.68384 43.68384 0 1 0 87.36768 0 43.68384 43.68384 0 1 0-87.36768 0Z" fill="#ECAD92" /><path d="M910.336 233.472v-26.624a53.248 53.248 0 0 0-53.248-53.248h-26.624v-26.624h26.624a79.872 79.872 0 0 1 79.872 79.872v26.624h-26.624z m-758.784-26.624v26.624h-26.624v-26.624a79.872 79.872 0 0 1 79.872-79.872h26.624V153.6H204.8a53.248 53.248 0 0 0-53.248 53.248z m0 625.664v26.624a53.248 53.248 0 0 0 53.248 53.248h26.624v26.624H204.8a79.872 79.872 0 0 1-79.872-79.872v-26.624h26.624z m758.784 26.624v-26.624h26.624v26.624a79.872 79.872 0 0 1-79.872 79.872h-26.624v-26.624h26.624a53.248 53.248 0 0 0 53.248-53.248z" fill="#9D3B17" /><path d="M138.24 566.272h785.408a13.312 13.312 0 1 1 0 26.624H138.24a13.312 13.312 0 1 1 0-26.624z" fill="#59BD25" /></svg>