<?xml version="1.0" standalone="no"?><!DOCTYPE svg PUBLIC "-//W3C//DTD SVG 1.1//EN" "http://www.w3.org/Graphics/SVG/1.1/DTD/svg11.dtd"><svg class="icon" width="128px" height="128.00px" viewBox="0 0 1024 1024" version="1.1" xmlns="http://www.w3.org/2000/svg"><path d="M266.24 213.90336h491.52a61.44 61.44 0 0 1 61.44 61.44V808.96a61.44 61.44 0 0 1-61.44 61.44H266.24a61.44 61.44 0 0 1-61.44-61.44V275.34336a61.44 61.44 0 0 1 61.44-61.44z" fill="#62CAF1" /><path d="M335.36 243.88608h353.28a40.96 40.96 0 0 1 40.96 40.96V779.4688a40.96 40.96 0 0 1-40.96 40.96h-353.28a40.96 40.96 0 0 1-40.96-40.96V284.84608a40.96 40.96 0 0 1 40.96-40.96z" fill="#FFFFFF" /><path d="M645.12 296.96H389.12c-11.3152 0-30.72-9.1648-30.72-20.48v-61.44c0-11.3152 14.56128-21.12512 25.86624-21.12512h79.19616C467.97824 170.93632 487.97696 153.6 512 153.6s44.02176 17.33632 48.5376 40.31488h88.96512c11.30496 0 26.33728 9.80992 26.33728 21.12512v61.44c0 11.3152-19.4048 20.48-30.72 20.48zM512 173.58848c-16.37376 0-29.6448 13.49632-29.6448 30.1568 0 16.65024 13.27104 30.14656 29.6448 30.14656s29.6448-13.49632 29.6448-30.14656c0-16.66048-13.27104-30.1568-29.6448-30.1568z" fill="#C9CCC9" /><path d="M675.84 266.24v10.24a20.48 20.48 0 0 1-20.48 20.48H378.88a20.48 20.48 0 0 1-20.48-20.48v-10.24h317.44z" fill="#B6B6B6" /><path d="M436.98176 364.50304h199.54688c7.68 0 13.91616 6.22592 13.91616 13.91616v2.1504a13.9264 13.9264 0 0 1-13.91616 13.91616H436.98176c-7.68 0-13.90592-6.22592-13.90592-13.91616v-2.1504c0-7.69024 6.22592-13.91616 13.90592-13.91616zM437.0944 466.85184h199.33184a14.0288 14.0288 0 0 1 14.01856 14.01856v2.29376a14.0288 14.0288 0 0 1-14.01856 14.01856H437.0944a14.0288 14.0288 0 0 1-14.01856-14.01856v-2.29376a14.0288 14.0288 0 0 1 14.01856-14.01856zM437.0944 559.21664h199.33184c7.74144 0 14.01856 6.26688 14.01856 14.00832v1.95584c0 7.74144-6.27712 14.00832-14.01856 14.00832H437.0944a14.00832 14.00832 0 0 1-14.01856-14.00832v-1.95584c0-7.74144 6.27712-14.00832 14.01856-14.00832zM364.40064 456.8576h8.5504a20.48 20.48 0 0 1 20.48 20.48v9.35936a20.48 20.48 0 0 1-20.48 20.48h-8.5504a20.48 20.48 0 0 1-20.48-20.48v-9.35936a20.48 20.48 0 0 1 20.48-20.48zM364.40064 548.87424h8.5504a20.48 20.48 0 0 1 20.48 20.48v9.34912a20.48 20.48 0 0 1-20.48 20.48h-8.5504a20.48 20.48 0 0 1-20.48-20.48v-9.34912a20.48 20.48 0 0 1 20.48-20.48z" fill="#C9CCC9" /><path d="M326.95296 357.69344l16.56832-10.9568 21.5552 33.66912-16.55808 10.94656-21.56544-33.65888z" fill="#72C072" /><path d="M343.12192 382.93504l74.53696-49.28512 10.78272 16.83456-74.53696 49.28512-10.78272-16.83456z" fill="#72C072" /></svg>